# File created by Blade
# Date/Time:  Wed Sep 24 19:10:19 2014
# Frame Rate: 120.000 fps
#------------------------------------------------------
:FULLY-SPECIFIED
:DEGREES
3362
root -7.428172 33.732592 -1.782622 33.575418 4.633341 18.026785
Spine -26.754003 7.650023 -15.789219
Head 4.972912 35.427228 6.487557
LeftShoulder -7.533682 15.183521 15.190053
LeftArm 26.823289 -16.321687 -87.951451
LeftForeArm 14.944340 -0.000000 89.045783
LeftHand -31.877124 -0.000000 37.988052
LeftHandThumb1 -26.253704 0.000000 33.147579
RightShoulder -15.812506 7.678138 -17.891397
RightArm -12.217947 -26.835585 80.382967
RightForeArm -22.850843 -0.000000 36.174768
RightHand -4.144487 -0.000000 9.199575
RightHandThumb1 -24.326973 -0.000000 -32.862282
LeftUpLeg 6.829794 11.588595 22.759904
LeftLeg 124.720815 -0.000000 -0.000000
LeftFoot 38.083389 10.269258 -16.986931
LeftToeBase 8.760878 -0.000000 -0.000000
RightUpLeg -31.526730 -12.920840 -6.916420
RightLeg 11.158727 -0.000000 -0.000000
RightFoot -11.345321 -14.972064 -9.593682
RightToeBase -3.494771 -0.000000 0.000000
3363
root -7.415050 33.736744 -1.825165 33.798260 4.572414 18.061517
Spine -26.745440 7.749425 -15.703814
Head 4.779964 35.350971 6.307574
LeftShoulder -7.503112 15.202600 15.154162
LeftArm 26.830748 -16.402173 -88.005845
LeftForeArm 14.495243 0.000000 89.096180
LeftHand -31.642760 -0.000000 38.022069
LeftHandThumb1 -26.253704 0.000000 33.147579
RightShoulder -15.771509 7.699079 -17.972687
RightArm -12.183670 -27.037782 80.251979
RightForeArm -22.774196 -0.000000 35.802461
RightHand -4.168382 0.000000 9.160843
RightHandThumb1 -24.326973 -0.000000 -32.862282
LeftUpLeg 6.756138 11.824831 22.882481
LeftLeg 123.886616 -0.000000 -0.000000
LeftFoot 38.015314 10.655863 -17.154623
LeftToeBase 8.627416 -0.000000 -0.000000
RightUpLeg -31.903500 -13.014124 -6.891905
RightLeg 11.265872 -0.000000 -0.000000
RightFoot -11.309279 -14.924529 -9.682843
RightToeBase -3.520671 -0.000000 0.000000
3364
root -7.390484 33.743597 -1.864641 34.016161 4.491876 18.227562
Spine -26.701709 7.764608 -15.720375
Head 4.562065 35.288231 6.090288
LeftShoulder -7.498150 15.296928 15.112789
LeftArm 26.882488 -16.520010 -88.030331
LeftForeArm 14.162087 0.000000 89.113407
LeftHand -31.458474 -0.000000 37.876748
LeftHandThumb1 -26.253704 0.000000 33.147579
RightShoulder -15.711531 7.783243 -18.076703
RightArm -12.210419 -27.131096 80.175657
RightForeArm -22.851072 0.000000 35.423728
RightHand -4.075007 -0.000000 9.357478
RightHandThumb1 -24.326973 -0.000000 -32.862282
LeftUpLeg 6.707975 12.024614 22.852997
LeftLeg 122.959193 -0.000000 -0.000000
LeftFoot 37.848230 11.174124 -17.310269
LeftToeBase 8.744522 -0.000000 -0.000000
RightUpLeg -32.207066 -12.949002 -7.133062
RightLeg 11.356283 -0.000000 -0.000000
RightFoot -11.272914 -15.125404 -9.727516
RightToeBase -3.503853 -0.000000 0.000000
3365
root -7.371732 33.749530 -1.903359 34.243177 4.416011 18.330868
Spine -26.676442 7.795629 -15.689879
Head 4.334939 35.259801 5.860524
LeftShoulder -7.482493 15.191634 15.075724
LeftArm 26.715626 -16.662850 -87.946871
LeftForeArm 13.802792 -0.000000 89.171952
LeftHand -31.363876 0.000000 37.799790
LeftHandThumb1 -26.253704 0.000000 33.147579
RightShoulder -15.671383 7.878918 -18.110083
RightArm -12.258168 -27.332769 80.006008
RightForeArm -22.765635 -0.000000 35.150964
RightHand -4.128121 -0.000000 9.450793
RightHandThumb1 -24.326973 -0.000000 -32.862282
LeftUpLeg 6.687403 12.219816 22.914129
LeftLeg 121.946442 -0.000000 -0.000000
LeftFoot 37.610002 11.678738 -17.350086
LeftToeBase 8.903662 -0.000000 -0.000000
RightUpLeg -32.544985 -13.000103 -7.229830
RightLeg 11.442242 -0.000000 -0.000000
RightFoot -11.301064 -15.112590 -9.693559
RightToeBase -3.444222 -0.000000 0.000000
3366
root -7.354464 33.756286 -1.947175 34.526331 4.365291 18.432667
Spine -26.693056 7.818878 -15.622320
Head 4.059638 35.230517 5.515529
LeftShoulder -7.488892 15.212694 14.981102
LeftArm 26.713734 -16.812671 -87.873742
LeftForeArm 13.502365 -0.000000 89.176629
LeftHand -31.351481 0.000000 37.746091
LeftHandThumb1 -26.253704 0.000000 33.147579
RightShoulder -15.688789 7.919078 -18.205259
RightArm -12.256775 -27.436242 79.865948
RightForeArm -22.793035 -0.000000 34.894820
RightHand -4.167003 -0.000000 9.432891
RightHandThumb1 -24.326973 -0.000000 -32.862282
LeftUpLeg 6.623231 12.356457 22.984840
LeftLeg 120.860908 -0.000000 -0.000000
LeftFoot 37.463891 12.073631 -17.431520
LeftToeBase 8.969791 -0.000000 -0.000000
RightUpLeg -32.947136 -13.094869 -7.285483
RightLeg 11.523855 -0.000000 -0.000000
RightFoot -11.279248 -15.102942 -9.727602
RightToeBase -3.415314 -0.000000 0.000000
3367
root -7.335872 33.756597 -1.984064 34.699418 4.279794 18.436190
Spine -26.606976 7.952763 -15.424008
Head 3.764535 35.230941 5.082934
LeftShoulder -7.499040 15.194336 14.794110
LeftArm 26.704402 -17.038534 -87.779650
LeftForeArm 13.172599 0.000000 89.164942
LeftHand -31.343663 -0.000000 37.908932
LeftHandThumb1 -26.253704 0.000000 33.147579
RightShoulder -15.637354 7.993062 -18.332925
RightArm -12.333143 -27.349915 79.702579
RightForeArm -22.872228 -0.000000 34.755962
RightHand -4.262981 -0.000000 9.589382
RightHandThumb1 -24.326973 -0.000000 -32.862282
LeftUpLeg 6.780365 12.491021 23.192244
LeftLeg 119.637874 -0.000000 -0.000000
LeftFoot 37.363586 12.287568 -17.333038
LeftToeBase 9.052894 -0.000000 -0.000000
RightUpLeg -33.242640 -13.140387 -7.275072
RightLeg 11.582104 -0.000000 -0.000000
RightFoot -11.275068 -15.064444 -9.791978
RightToeBase -3.402174 -0.000000 0.000000
3368
root -7.321205 33.764400 -2.027762 34.996771 4.249310 18.563903
Spine -26.608966 7.922951 -15.371062
Head 3.450927 35.245085 4.744063
LeftShoulder -7.500600 15.164420 14.677917
LeftArm 26.698684 -17.298967 -87.696746
LeftForeArm 12.848831 0.000000 89.135134
LeftHand -31.391412 -0.000000 37.909125
LeftHandThumb1 -26.253704 0.000000 33.147579
RightShoulder -15.600466 8.010201 -18.395571
RightArm -12.387905 -27.240801 79.545182
RightForeArm -22.946044 -0.000000 34.632937
RightHand -4.294976 -0.000000 9.539273
RightHandThumb1 -24.326973 -0.000000 -32.862282
LeftUpLeg 6.745726 12.511820 23.263568
LeftLeg 118.364364 -0.000000 -0.000000
LeftFoot 37.269319 12.431867 -17.314371
LeftToeBase 8.976817 -0.000000 -0.000000
RightUpLeg -33.643885 -13.249199 -7.345057
RightLeg 11.657888 -0.000000 -0.000000
RightFoot -11.268578 -15.073210 -9.791322
RightToeBase -3.340748 -0.000000 0.000000
